<svg height='64' viewBox="0 0 32 32" xmlns="http://www.w3.org/2000/svg"><g class="fillGroup noStroke"><path d="M 4.8575963,28.310934 H 23.554682 l -0.892959,-2.891303 2.136022,1.833125 1.957694,1.75445 3.566595,2.980467 V 3.7630585 C 30.232869,2.0086086 28.722311,0.51771956 26.849849,0.51771956 l -21.9856964,0.003934 c -1.8711511,0 -3.3895763,1.49351144 -3.3895763,3.24796144 v 21.294668 c 0,1.850172 1.5158027,3.246651 3.38302,3.246651 z M 18.688641,7.9695424 l -0.04327,0.015735 0.01573,-0.015735 z M 8.6825069,9.6335162 c 2.4035181,-1.749205 4.6313281,-1.665285 4.6313281,-1.665285 l 0.179642,0.1770184 c -2.94113,0.7015177 -4.2746696,2.0153884 -4.2746696,2.0153884 0,0 0.3566594,-0.1743961 0.9795026,-0.4405795 3.96128,-1.5577627 8.287087,-1.4449953 12.291639,0.5271215 0,0 -1.336162,-1.2286391 -4.096339,-2.015388 l 0.243892,-0.2399584 c 0.381574,0.00131 2.400895,0.07212 4.561832,1.6521726 0,0 2.417942,4.1304308 2.417942,9.2049618 -0.07998,-0.09703 -1.500068,2.184539 -5.154517,2.263214 0,0 -0.618909,-0.700206 -1.059488,-1.311248 2.137334,-0.613665 2.937196,-1.840993 2.937196,-1.840993 -0.701518,0.441891 -1.341407,0.704141 -1.860661,0.96639 -0.79855,0.351415 -1.598411,0.5245 -2.396961,0.701518 -3.78164,0.613664 -5.904551,-0.413044 -7.91076,-1.227329 L 9.486302,18.051728 c 0,0 0.79855,1.227329 2.850654,1.840993 -0.538923,0.614976 -1.072602,1.313871 -1.072602,1.313871 -3.6531367,-0.08655 -4.9853647,-2.368115 -4.9853647,-2.368115 0,-5.082397 2.4035176,-9.2049608 2.4035176,-9.2049608 z"></path><path d="m 18.924666,17.263669 c 0.932297,0 1.691509,-0.786749 1.691509,-1.757073 0,-0.963767 -0.755278,-1.750516 -1.691509,-1.750516 v 0.0039 c -0.928364,0 -1.688888,0.784129 -1.691511,1.754451 0,0.962456 0.759213,1.749205 1.691511,1.749205 z"></path><path d="m 12.869322,17.263669 c 0.932297,0 1.69151,-0.786749 1.69151,-1.757073 0,-0.963767 -0.753968,-1.750516 -1.686265,-1.750516 l -0.0052,0.0039 c -0.932296,0 -1.691509,0.784129 -1.691509,1.754451 0,0.962456 0.759213,1.749205 1.691509,1.749205 z"></path></g></svg>